<?xml version="1.0" encoding="utf-8"?>
<svg version="1.1" id="Warstwa_1" xmlns="http://www.w3.org/2000/svg" xmlns:xlink="http://www.w3.org/1999/xlink" x="0px" y="0px" viewBox="0 0 130 33" xml:space="preserve">
	<g fill="currentColor" style="fill: currentColor;">
		<path d="M0,0h14.3C24,0,29.2,5.9,29.2,13.2c0,7.3-5.2,13.2-15,13.2H6.1v6H0V0z M14.6,21.1c5.1,0,8.2-3.5,8.2-7.9
			c0-4.3-3.1-7.9-8.2-7.9H6.1v15.7H14.6z"/>
		<path d="M32.7,8.2h5.8V14c1-2.7,3.8-5.8,9.4-5.8v6.5c-5.7,0-9.4,2.8-9.4,9.7v8h-5.8V8.2z"/>
		<rect x="51.3" y="8.2" width="5.8" height="24.3"/>
		<path d="M60.5,8.2h5.8v4.3c1.9-2.9,4.9-4.3,8.4-4.3c7,0,9.3,4.8,9.3,11.8v12.4h-5.8V20.8c0-4.3-0.9-7.4-5.3-7.4
			c-3.8,0-6.6,3.6-6.6,8v11.1h-5.8V8.2z"/>
		<path d="M89.9,24V13.1H86V8.2h3.8V3l5.8-1.2v6.4h7.8v4.9h-7.8v11c0,2.8,1.3,3.7,2.8,3.7c2,0,3.8-1.3,3.8-1.3l1.7,4.4
			c-1.2,0.8-3.3,2-6.2,2C92.4,33,89.9,30.1,89.9,24z"/>
		<path d="M117.4,7.7c-7,0-12.6,5.7-12.6,12.7c0,7,5.7,12.7,12.6,12.7S130,27.3,130,20.3C130,13.3,124.3,7.7,117.4,7.7z
			M117.4,27.3c-3.8,0-6.9-3.1-6.9-6.9s3.1-6.9,6.9-6.9c3.8,0,6.9,3.1,6.9,6.9S121.2,27.3,117.4,27.3z"/>
		<g>
			<polygon points="51.3,5.6 57.1,5.6 57.1,1.8 51.3,3 		"/>
		</g>
	</g>
</svg>