<?xml version="1.0" encoding="UTF-8"?><svg id="Dashed_guides" xmlns="http://www.w3.org/2000/svg" viewBox="0 0 192.76 68.03"><defs><style>.cls-1{fill:#002124;}</style></defs><path class="cls-1" d="m117.7,25.48c-.88,0-1.59-.71-1.59-1.59v-7.03s-.58,0-.58,0c-3.64,0-4.99.6-4.99,3.92v7.76s0,.03,0,.05v1.7c0,.06,0,.11,0,.17v10.84c0,1.32-.26,2.38-.78,3.2-.99,1.53-2.96,2.22-6.1,2.23-3.14,0-5.11-.7-6.1-2.23-.53-.82-.78-1.87-.78-3.2v-10.84c0-.06,0-.12,0-.17v-1.7s0-.03,0-.05v-7.76c0-3.32-1.35-3.92-4.99-3.92h-1.15c-3.64,0-4.99.6-4.99,3.92v20.52c0,3.3.74,6.1,2.18,8.35,2.78,4.37,8.16,6.69,15.81,6.69,0,0,.02,0,.03,0s.02,0,.03,0c7.65,0,13.03-2.33,15.81-6.69,1.44-2.25,2.18-5.05,2.18-8.35v-15.81h-3.96Z"/><rect class="cls-1" x="127.35" y="5.72" width="8.35" height="8.42" rx="1.18" ry="1.18"/><rect class="cls-1" x="121.68" y="0" width="5.67" height="5.72" rx=".8" ry=".8"/><path class="cls-1" d="m15.82,16.85H7.11c-4.65,0-6.73,2.07-6.73,6.73v29.88c0,1.8.58,2.37,2.37,2.37h.59c1.8,0,2.37-.58,2.37-2.37v-11.63h10.1c8.96,0,13.14-3.97,13.14-12.49s-4.17-12.49-13.14-12.49Zm7.8,12.49c0,4.87-1.24,7.51-7.8,7.51H5.72v-12.57c0-1.74.65-2.39,2.39-2.39h7.71c4.94,0,7.8,1.22,7.8,7.45Z"/><path class="cls-1" d="m40.17,25.42c-3.45,0-5.61.43-6.43.6-1.45.32-2.06.71-2.06,2.37v.47c0,.65.1,1.1.3,1.41.24.37.62.55,1.15.55.25,0,.55-.04.9-.13.83-.21,3.48-.64,6.38-.64,5.21,0,7.33,1.44,7.33,4.98v3.16h-6.57c-8.44,0-12.37,2.85-12.37,8.96s4.06,9.2,11.43,9.2c8.76,0,12.67-2.98,12.67-9.67v-11.65c0-6.47-4.16-9.61-12.73-9.61Zm7.57,16.98v4.1c0,3.34-1.24,5.27-7.57,5.27-4.18,0-6.21-1.51-6.21-4.63,0-3.41,2.04-4.74,7.27-4.74h6.51Z"/><path class="cls-1" d="m81.77,26.81c-.37-.47-1.08-.53-1.78-.53h-.53c-1.76,0-2.45.54-2.83,2.23l-4.88,20.29c-.61,2.49-1.47,2.95-2.93,2.95-1.79,0-2.51-.43-3.23-2.96l-5.53-20.29c-.46-1.7-1.13-2.22-2.89-2.22h-.47c-.71,0-1.42.07-1.78.54-.36.47-.24,1.18-.05,1.88l5.59,20.47c1.05,3.92,2.29,7.16,6.95,7.16.87,0,1.67-.12,2.34-.35-1.41,4.44-2.85,6.4-7.08,6.83-.86.07-1.42.19-1.73.61-.32.43-.25,1.05-.13,1.61l.12.52c.25,1.21.68,1.97,2.05,1.97.14,0,.3,0,.46-.02,6.32-.41,9.71-3.82,11.7-11.75l6.77-27.07c.16-.69.26-1.4-.11-1.87Z"/><path class="cls-1" d="m125.76,14.14h-8.06c-.88,0-1.59.71-1.59,1.59v1.12s.56,0,.56,0c3.64,0,4.99.6,4.99,3.92v4.71h4.1c.88,0,1.59-.71,1.59-1.59v-8.16c0-.88-.71-1.59-1.59-1.59Z"/><path class="cls-1" d="m175.11,36.79c-1.36,0-2.28.27-2.75.8-.45.52-.68,1.39-.68,2.62v3.4c0,1.23.23,2.11.68,2.62.47.53,1.39.8,2.75.8s2.29-.27,2.75-.8c.45-.52.68-1.39.68-2.62v-3.4c0-1.23-.23-2.11-.68-2.62-.47-.53-1.39-.8-2.75-.8Z"/><path class="cls-1" d="m161.3,37.01h-2.92c-.49,0-.73.24-.73.73v3.77h3.65c.76,0,1.3-.18,1.63-.53.32-.36.49-.92.49-1.7s-.17-1.35-.5-1.71c-.33-.36-.87-.55-1.62-.55Z"/><path class="cls-1" d="m178.81,27.95h-36.13c-7.71,0-13.96,6.25-13.96,13.96s6.25,13.96,13.96,13.96h36.13c7.71,0,13.96-6.25,13.96-13.96s-6.25-13.96-13.96-13.96Zm-26.91,18.45c0,1.13-.18,1.96-.55,2.48-.36.52-1.03.86-2,1.02-.62.11-1.3.17-2.04.17-2.71,0-4.65-.47-5.83-1.41-1.2-.96-1.8-2.57-1.8-4.84v-3.89c0-1.91.63-3.42,1.9-4.53,1.26-1.11,3.13-1.66,5.61-1.66,1.1,0,2.15.16,3.16.49.53.18.89.38,1.06.61.17.23.25.61.25,1.14v.19c0,.57-.09.93-.28,1.09-.19.16-.54.16-1.06,0-1.02-.32-2.03-.49-3.04-.49-1.57,0-2.67.26-3.31.77s-.95,1.39-.95,2.64v3.89c0,.96.3,1.69.9,2.19.62.52,1.75.78,3.4.78.26,0,.57-.02.92-.05.42-.03.63-.3.63-.8v-3.99c0-.55.1-.92.29-1.12s.57-.29,1.12-.29h.19c.55,0,.92.1,1.12.29s.29.57.29,1.12v4.2Zm9.41-1.85h-3.65v3.82c0,.55-.09.92-.28,1.12-.19.19-.56.29-1.13.29h-.44c-.57,0-.94-.1-1.13-.29-.19-.19-.28-.57-.28-1.12v-11.47c0-1.02.23-1.76.69-2.22.46-.46,1.2-.69,2.22-.69h3.99c3.58,0,5.37,1.77,5.37,5.3s-1.79,5.27-5.37,5.27Zm20.51-.92c0,2.09-.49,3.69-1.48,4.79-1,1.12-2.75,1.68-5.23,1.68s-4.22-.56-5.22-1.68c-.99-1.1-1.48-2.7-1.48-4.79v-3.4c0-2.09.49-3.69,1.48-4.79,1-1.12,2.75-1.68,5.22-1.68s4.22.56,5.23,1.68c.99,1.1,1.48,2.7,1.48,4.79v3.4Z"/></svg>